<svg xmlns="http://www.w3.org/2000/svg" viewBox="0 0 1600 900" preserveAspectRatio="xMidYMid slice"><defs><linearGradient id="g" x1="0" y1="0" x2="1" y2="1"><stop stop-color="#12341f"/><stop offset=".52" stop-color="#2f6f3e"/><stop offset="1" stop-color="#b98b4b"/></linearGradient></defs><rect width="1600" height="900" fill="url(#g)"/><path d="M0 676c211-126 394-163 550-111 150 50 273 43 429-46 163-94 378-74 621 60v321H0z" fill="#10291d" opacity=".72"/><path d="M233 168c51 192 40 426-35 702h103c-43-274-32-506 35-696zm1079-34c64 222 54 466-31 736h119c-50-263-40-509 34-735z" fill="#24180f"/><path d="M151 196c233-134 413-126 542 24-204 94-395 89-573-14zm947-20c193-134 363-115 510 57-193 86-366 66-530-44z" fill="#2d7a43"/><path d="M416 480c220-72 425-64 616 24" fill="none" stroke="#8f6034" stroke-width="32" stroke-linecap="round"/><path d="M503 428h74v88h-74zm150-24h88v118h-88zm174 12h78v101h-78z" fill="#362111"/><circle cx="540" cy="449" r="10" fill="#ffd76f"/><circle cx="692" cy="424" r="10" fill="#ffd76f"/><circle cx="865" cy="438" r="10" fill="#ffd76f"/><path d="M0 0h1600v900H0z" fill="#d6ff9f" opacity=".04"/></svg>
