<svg xmlns="http://www.w3.org/2000/svg" viewBox="0 0 1600 900" preserveAspectRatio="xMidYMid slice"><defs><linearGradient id="g" x1="0" y1="0" x2="1" y2="1"><stop stop-color="#4a1512"/><stop offset=".52" stop-color="#b85a32"/><stop offset="1" stop-color="#21100e"/></linearGradient></defs><rect width="1600" height="900" fill="url(#g)"/><path d="M0 694 240 314l148 180 195-310 252 420 139-191 233 303 144-156 249 196v144H0z" fill="#211110" opacity=".83"/><path d="M665 684c56-194 135-299 236-315 102 71 156 177 162 319z" fill="#3a1713"/><path d="M808 683c20-94 49-143 88-147 46 43 70 92 72 148z" fill="#ffb14e"/><path d="M482 618h186v74H482zm423-18h234v86H905zm-339-92h67v110h-67zm436-92h71v184h-71z" fill="#5a2a1e"/><path d="M0 770c257-86 419-70 650-41 221 27 400-79 950-16" fill="none" stroke="#f5a24d" stroke-width="14" opacity=".47"/><path d="M1026 228c76 88 88 181 36 279 142-92 136-191-36-279z" fill="#ffd166" opacity=".62"/></svg>
