<svg xmlns="http://www.w3.org/2000/svg" viewBox="0 0 1600 900" preserveAspectRatio="xMidYMid slice"><defs><linearGradient id="g" x1="0" y1="0" x2="1" y2="1"><stop stop-color="#09090d"/><stop offset=".52" stop-color="#292034"/><stop offset="1" stop-color="#304c3b"/></linearGradient></defs><rect width="1600" height="900" fill="url(#g)"/><path d="M0 590c180-67 361-68 545-2 176 63 336 54 482-29 162-92 353-89 573 7v334H0z" fill="#0b1110" opacity=".82"/><path d="M232 520c24-145 12-266-36-363 89 86 128 208 118 365zm1034 44c-13-169 25-299 114-391-37 130-37 261 0 393z" fill="#08080a"/><path d="M521 536V370l92-82 94 82v166zm128 0V426h162v110zm276 0V322l111-103 117 103v214z" fill="#17131d"/><path d="M590 401h24m52 0h24m313-25h28m52 0h28" stroke="#9ff0a9" stroke-width="14" opacity=".82"/><path d="M0 666c245-43 454 20 622 15 216-7 384-99 568-75 164 22 300 57 410 37" fill="none" stroke="#91e3a1" stroke-width="10" opacity=".22"/><path d="M0 0h1600v900H0z" fill="#e4eaff" opacity=".04"/></svg>
