<svg xmlns="http://www.w3.org/2000/svg" viewBox="0 0 1600 900" preserveAspectRatio="xMidYMid slice"><defs><linearGradient id="sky" x1="0" y1="0" x2="0" y2="1"><stop stop-color="#94c9f5"/><stop offset=".55" stop-color="#dff5ff"/><stop offset="1" stop-color="#5eb5d9"/></linearGradient><linearGradient id="sea" x1="0" y1=".4" x2="1" y2="1"><stop stop-color="#71d0ef"/><stop offset="1" stop-color="#146f9e"/></linearGradient></defs><rect width="1600" height="900" fill="url(#sky)"/><path d="M0 548c244-38 418 35 660-4 213-34 407-63 940 0v356H0z" fill="url(#sea)"/><path d="M0 468c115-128 270-196 464-204 76 51 135 110 179 178-185-5-349 3-494 45z" fill="#f4f0df"/><path d="M1160 260c134 52 244 127 330 226-132-25-248-37-348-36-36-70-31-133 18-190z" fill="#f8f4e8"/><path d="M97 444h457v54H97zm101-82h276v82H198zm42-80h197v80H240zM1245 425h235v52h-235zm36-78h155v78h-155z" fill="#fff8ea" opacity=".95"/><path d="M263 282h33v80h-33zm78 0h33v80h-33zm983 65h26v78h-26zm58 0h26v78h-26z" fill="#78add3"/><path d="M150 552c219-71 407-69 565-19 184 58 352-17 650 34" fill="none" stroke="#fff8d9" stroke-width="10" opacity=".5"/><path d="M780 475l45-104 49 104zm397-42 30-79 34 79z" fill="#f4f7fb"/><path d="M812 475h108m292-42h79" stroke="#9b7a3f" stroke-width="8"/><path d="M0 0h1600v900H0z" fill="none" stroke="#f5d893" stroke-width="22" opacity=".18"/></svg>
