<svg xmlns="http://www.w3.org/2000/svg" viewBox="0 0 1600 900" preserveAspectRatio="xMidYMid slice"><defs><linearGradient id="g" x1="0" y1="0" x2="0" y2="1"><stop stop-color="#dbeefe"/><stop offset=".54" stop-color="#f7f4e9"/><stop offset="1" stop-color="#a7b4c2"/></linearGradient></defs><rect width="1600" height="900" fill="url(#g)"/><path d="M0 641c254-81 446-91 576-31 187 86 381 48 526 7 164-47 330-48 498-4v287H0z" fill="#eef4fb"/><path d="M495 610V306l149-150 152 150v304zm310 0V387l112-126 116 126v223z" fill="#d8dfe7"/><path d="M575 610V360h143v250zm306 0V438h78v172z" fill="#f9fbff"/><path d="M644 156l38 118h-80zm273 105 29 94h-62z" fill="#b8c2cf"/><path d="M420 610h720" stroke="#fff" stroke-width="28" opacity=".62"/><path d="M520 418h55m85 0h55m183 67h45" stroke="#8190a4" stroke-width="12"/><path d="M0 724c243-62 436-65 580-7 171 70 351 34 558-30 150-46 304-40 462 18" fill="none" stroke="#fff" stroke-width="12" opacity=".72"/></svg>
